#!OML:ASF X:\für Bonn\!DataBase\2005_08_10_Bjorn_Final\c3d\bjorn.ASF
:FULLY-SPECIFIED
:DEGREES
386
root 18.2395 19.2145 -1.57103 -25.9124 -82.457 -324.742
lowerback 0.67544 0.0725835 -0.369646
upperback 2.9566 0.0986332 -4.55533
thorax 2.67232 0.0600925 -4.49903
lowerneck 0.775489 -1.66156 6.48933
upperneck 8.4148 -2.27942 -2.30013
head 2.44899 -1.04473 -1.90749
rclavicle -1.64991e-014 -2.62396e-014
rhumerus -32.4484 12.5874 -90.3453
rradius 38.3325
rwrist -0.205579
rhand -10.57 13.621
rfingers 7.12502
rthumb 15.4347 -15.7827
lclavicle -1.64991e-014 -2.62396e-014
lhumerus -37.5287 -34.2156 86.8305
lradius 47.2855
lwrist -7.37865
lhand -23.6909 -9.06803
lfingers 7.12502
lthumb 2.77586 20.8936
rfemur -8.80324 -8.80662 14.33
rtibia 25.7254
rfoot -17.9162 21.3735
rtoes 6.71712
lfemur -9.80391 7.15383 -13.7012
ltibia 34.4113
lfoot -9.9186 13.2974
ltoes -27.2886
387
root 18.1773 19.2084 -1.57425 -27.7198 -82.6692 -322.955
lowerback 0.353355 0.0600477 -0.416526
upperback 2.62416 0.0849359 -4.58801
thorax 2.50893 0.0502136 -4.50463
lowerneck 0.782251 -1.59005 6.59929
upperneck 8.96863 -2.17586 -2.64254
head 2.63652 -0.995399 -2.04955
rclavicle -6.55989e-015 6.36111e-015
rhumerus -32.6718 12.7279 -90.4233
rradius 38.5597
rwrist -0.678948
rhand -10.582 13.5846
rfingers 7.12502
rthumb 15.4231 -15.8201
lclavicle -6.55989e-015 6.36111e-015
lhumerus -38.0322 -33.3266 87.0018
lradius 46.9368
lwrist -8.00444
lhand -23.6104 -9.21303
lfingers 7.12502
lthumb 2.85362 20.7476
rfemur -8.44696 -8.5777 14.2196
rtibia 25.4559
rfoot -18.0039 21.457
rtoes 6.79345
lfemur -10.0063 7.18568 -13.8541
ltibia 35.2389
lfoot -9.75906 13.848
ltoes -27.3093
388
root 18.1166 19.2028 -1.57795 -29.3273 -82.87 -321.371
lowerback 0.0749791 0.0576055 -0.425748
upperback 2.28127 0.0819629 -4.60835
thorax 2.31131 0.0459124 -4.51845
lowerneck 0.868664 -1.52185 6.66824
upperneck 9.48068 -2.07202 -2.94546
head 2.79782 -0.947731 -2.17005
rclavicle 2.68359e-014 6.44062e-014
rhumerus -32.8931 12.868 -90.5154
rradius 38.7116
rwrist -1.25738
rhand -10.6325 13.5158
rfingers 7.12502
rthumb 15.3745 -15.8926
lclavicle 2.68359e-014 6.44062e-014
lhumerus -38.5751 -32.5229 87.2047
lradius 46.6278
lwrist -8.56514
lhand -23.5142 -9.30634
lfingers 7.12502
lthumb 2.94657 20.653
rfemur -8.08631 -8.36645 14.1439
rtibia 25.1681
rfoot -18.0445 21.5574
rtoes 6.94298
lfemur -10.2497 7.23403 -13.9718
ltibia 36.0978
lfoot -9.53372 14.4473
ltoes -27.4013
389
root 18.0575 19.1962 -1.58159 -31.1729 -83.0139 -319.59
lowerback -0.164891 0.0325428 -0.50592
upperback 1.97739 0.0484186 -4.5952
thorax 2.12994 0.0247609 -4.45793
lowerneck 0.875007 -1.44018 6.66347
upperneck 10.0501 -1.95048 -3.27847
head 2.99636 -0.895567 -2.29073
rclavicle -7.15625e-015 -2.38542e-015
rhumerus -33.0001 12.9565 -90.5104
rradius 38.7645
rwrist -1.76039
rhand -10.6231 13.4255
rfingers 7.12502
rthumb 15.3835 -15.9821
lclavicle -7.15625e-015 -2.38542e-015
lhumerus -38.9742 -31.5171 87.3668
lradius 46.2432
lwrist -9.22277
lhand -23.3659 -9.39255
lfingers 7.12502
lthumb 3.08975 20.5648
rfemur -7.67366 -8.16692 14.02
rtibia 24.8843
rfoot -18.0969 21.6291
rtoes 7.10824
lfemur -10.4814 7.2679 -14.1284
ltibia 36.9667
lfoot -9.22943 15.0754
ltoes -27.6111
390
root 17.9996 19.1912 -1.58481 -33.186 -83.1574 -317.669
lowerback -0.364243 0.0174641 -0.593025
upperback 1.71022 0.0276051 -4.56985
thorax 1.96485 0.0102116 -4.38089
lowerneck 0.850715 -1.33775 6.69084
upperneck 10.5451 -1.79717 -3.63983
head 3.17915 -0.829137 -2.4266
rclavicle -6.36111e-015 7.95139e-016
rhumerus -32.9529 12.8203 -90.4079
rradius 38.6498
rwrist -1.99994
rhand -10.5414 13.4435
rfingers 7.12502
rthumb 15.4622 -15.9581
lclavicle -6.36111e-015 7.95139e-016
lhumerus -39.2105 -30.427 87.4558
lradius 45.7823
lwrist -10.0291
lhand -23.1539 -9.49346
lfingers 7.12502
lthumb 3.29445 20.4608
rfemur -7.22901 -7.90383 13.8922
rtibia 24.583
rfoot -18.2153 21.6247
rtoes 7.02029
lfemur -10.7051 7.3112 -14.2906
ltibia 37.8576
lfoot -8.95099 15.696
ltoes -27.7833
391
root 17.9426 19.1853 -1.58819 -35.3213 -83.2577 -315.64
lowerback -0.545482 -0.00682416 -0.723295
upperback 1.46456 -0.00522361 -4.52688
thorax 1.81108 -0.0107092 -4.26152
lowerneck 0.809307 -1.22477 6.67035
upperneck 11.049 -1.62757 -4.00072
head 3.37163 -0.758047 -2.55494
rclavicle -3.37934e-015 3.57812e-014
rhumerus -32.8732 12.6657 -90.2826
rradius 38.5664
rwrist -2.07736
rhand -10.4448 13.3357
rfingers 7.12502
rthumb 15.5553 -16.0587
lclavicle -3.37934e-015 3.57812e-014
lhumerus -39.3671 -29.2188 87.4968
lradius 45.2928
lwrist -11.0196
lhand -22.9162 -9.59865
lfingers 7.12502
lthumb 3.52402 20.352
rfemur -6.77378 -7.63858 13.7396
rtibia 24.2829
rfoot -18.3452 21.5799
rtoes 7.02033
lfemur -10.9401 7.33504 -14.4754
ltibia 38.761
lfoot -8.71722 16.3194
ltoes -27.4694
392
root 17.8862 19.1807 -1.59098 -37.3293 -83.3641 -313.74
lowerback -0.71284 -0.0328695 -0.816653
upperback 1.23746 -0.0406452 -4.4734
thorax 1.66883 -0.031816 -4.1525
lowerneck 0.88982 -1.11413 6.61084
upperneck 11.3863 -1.45139 -4.33444
head 3.48527 -0.685826 -2.66161
rclavicle 1.16289e-014 3.10104e-014
rhumerus -32.7489 12.3793 -90.1348
rradius 38.5023
rwrist -1.93926
rhand -10.3346 13.2584
rfingers 7.12502
rthumb 15.6614 -16.1277
lclavicle 1.16289e-014 3.10104e-014
lhumerus -39.4126 -27.9013 87.4478
lradius 44.7578
lwrist -12.2501
lhand -22.669 -9.68212
lfingers 7.12502
lthumb 3.76276 20.2644
rfemur -6.30789 -7.3968 13.6136
rtibia 23.9619
rfoot -18.4454 21.5703
rtoes 6.9612
lfemur -11.2038 7.39248 -14.627
ltibia 39.6995
lfoot -8.50289 16.8773
ltoes -27.0001
393
root 17.8307 19.1771 -1.59446 -39.1248 -83.4781 -312.05
lowerback -0.858996 -0.0521224 -0.872755
upperback 1.01084 -0.0680897 -4.40767
thorax 1.51596 -0.0481711 -4.05176
lowerneck 1.12907 -1.03704 6.48496
upperneck 11.6236 -1.31545 -4.60009
head 3.53178 -0.634564 -2.72869
rclavicle -2.68359e-015 -2.14687e-014
rhumerus -32.6154 12.0241 -89.9917
rradius 38.4147
rwrist -1.84352
rhand -10.2587 13.2724
rfingers 7.12502
rthumb 15.7345 -16.108
lclavicle -2.68359e-015 -2.14687e-014
lhumerus -39.4346 -26.5757 87.3699
lradius 44.2437
lwrist -13.577
lhand -22.3843 -9.75649
lfingers 7.12502
lthumb 4.03764 20.185
rfemur -5.8472 -7.09147 13.5432
rtibia 23.6275
rfoot -18.5511 21.4543
rtoes 6.84252
lfemur -11.4979 7.44559 -14.7408
ltibia 40.6667
lfoot -8.33765 17.3902
ltoes -26.3444
394
root 17.7767 19.1747 -1.59814 -40.8785 -83.5838 -310.409
lowerback -0.992825 -0.0711871 -0.942792
upperback 0.813605 -0.0943953 -4.32555
thorax 1.38672 -0.0635816 -3.9264
lowerneck 1.53952 -0.979151 6.34738
upperneck 11.671 -1.19622 -4.85948
head 3.47834 -0.591215 -2.78477
rclavicle 6.95746e-016 3.33958e-014
rhumerus -32.4676 11.6195 -89.816
rradius 38.4049
rwrist -1.65801
rhand -10.1105 13.2673
rfingers 7.12502
rthumb 15.8772 -16.1018
lclavicle 6.95746e-016 3.33958e-014
lhumerus -39.4044 -25.3107 87.2742
lradius 43.7374
lwrist -14.8837
lhand -22.1323 -9.90408
lfingers 7.12502
lthumb 4.28105 20.0326
rfemur -5.37832 -6.79744 13.4832
rtibia 23.2741
rfoot -18.5653 21.3521
rtoes 6.75096
lfemur -11.8275 7.46124 -14.8455
ltibia 41.6761
lfoot -8.1871 17.8816
ltoes -25.4489
395
root 17.7217 19.1734 -1.60106 -42.8181 -83.6977 -308.567
lowerback -1.13532 -0.066177 -0.977098
upperback 0.619903 -0.0892875 -4.28424
thorax 1.26802 -0.0629081 -3.86333
lowerneck 1.97733 -0.923914 6.2724
upperneck 11.6842 -1.08599 -5.07516
head 3.40799 -0.547503 -2.83678
rclavicle -3.37934e-015 5.56597e-014
rhumerus -32.3801 11.0954 -89.71
rradius 38.4483
rwrist -1.4645
rhand -9.95643 13.3295
rfingers 7.12502
rthumb 16.0256 -16.0277
lclavicle -3.37934e-015 5.56597e-014
lhumerus -39.3578 -24.1715 87.1522
lradius 43.2309
lwrist -16.0923
lhand -22.0214 -10.0501
lfingers 7.12502
lthumb 4.38806 19.8844
rfemur -4.93031 -6.46652 13.4216
rtibia 22.9228
rfoot -18.5736 21.2208
rtoes 6.60692
lfemur -12.1854 7.51872 -14.9574
ltibia 42.7063
lfoot -8.00789 18.2756
ltoes -24.2161
396
root 17.6685 19.1725 -1.60266 -44.634 -83.7967 -306.851
lowerback -1.25825 -0.0466501 -1.00057
upperback 0.446177 -0.0647538 -4.23305
thorax 1.16005 -0.0520843 -3.79581
lowerneck 2.41992 -0.89021 6.2161
upperneck 11.6765 -1.00281 -5.32614
head 3.32837 -0.516942 -2.90495
rclavicle 2.18663e-015 2.94201e-014
rhumerus -32.3049 10.5515 -89.5767
rradius 38.5254
rwrist -1.25133
rhand -9.8058 13.4033
rfingers 7.12502
rthumb 16.1707 -15.9422
lclavicle 2.18663e-015 2.94201e-014
lhumerus -39.2456 -23.1257 87.0516
lradius 42.6948
lwrist -17.3073
lhand -21.9695 -10.2787
lfingers 7.12502
lthumb 4.43824 19.6548
rfemur -4.48521 -6.18101 13.3631
rtibia 22.5714
rfoot -18.5662 21.1146
rtoes 6.47064
lfemur -12.5805 7.56522 -15.068
ltibia 43.7564
lfoot -7.70278 18.5872
ltoes -22.9551
